ply
format ascii 1.0
comment VCGLIB generated
element vertex 452
property float x
property float y
property float z
property float nx
property float ny
property float nz
property int flags
element face 912
property list uchar int vertex_indices
property int flags
end_header
-29.5574 19.05 17.4461 -0.5534781 0.5773531 0.6002712 0 
-24.90741 10.90569 17.25748 0.7152739 -2.331621e-07 0.6988443 0 
-24.85428 11.51346 17.25533 0.7048553 -0.119186 0.6992667 0 
-24.6965 -9.708621 17.24893 0.673914 -0.2347507 0.7005228 0 
-24.85428 -10.29792 17.25533 0.704855 -0.1191859 0.6992669 0 
-29.5574 -19.05 17.4461 -0.5534758 -0.5773507 0.6002756 0 
-24.90741 -10.90569 17.25748 0.7152739 1.704332e-07 0.6988443 0 
-24.43888 -9.155692 17.23848 0.6233947 -0.3431812 0.7025708 0 
-24.08923 -8.655935 17.22429 0.5548282 -0.4411846 0.7053523 0 
-23.65819 -8.224536 17.20681 0.4702985 -0.5257827 0.708782 0 
-24.6965 12.10276 17.24893 0.6739148 -0.2347504 0.700522 0 
-24.43888 12.65569 17.23848 0.6233947 -0.3431811 0.7025709 0 
-24.08923 13.15545 17.22429 0.5548282 -0.4411848 0.7053522 0 
-23.65819 13.58685 17.20681 0.470299 -0.5257827 0.7087817 0 
-23.15884 13.93678 17.18655 0.3723747 -0.5944074 0.7127532 0 
-22.60637 14.19462 17.16414 0.2640327 -0.6449687 0.7171486 0 
-22.01755 14.35252 17.14026 0.1485642 -0.6759344 0.721832 0 
-21.41028 14.40569 17.11562 0.02947637 -0.6863617 0.7266629 0 
-12.93212 19.05 16.77172 0.05943024 0.6976649 0.713955 0 
-20.80301 14.35252 17.09099 -0.08961133 -0.6759347 0.7314932 0 
-20.2142 14.19462 17.06711 -0.2050803 -0.6449685 0.7361779 0 
-19.66172 13.93678 17.04469 -0.3134216 -0.5944071 0.7405722 0 
-19.16237 13.58685 17.02444 -0.4113462 -0.5257834 0.7445443 0 
-18.73133 13.15545 17.00695 -0.4958756 -0.4411847 0.7479729 0 
-18.38168 12.65569 16.99277 -0.5644416 -0.3431811 0.7507545 0 
-18.12406 12.10276 16.98232 -0.6149632 -0.2347494 0.7528034 0 
-17.96629 11.51346 16.97592 -0.6459021 -0.1191858 0.7540592 0 
-24.6965 9.708619 17.24893 0.6739151 0.2347501 0.7005218 0 
-24.85428 10.29792 17.25533 0.7048568 0.1191873 0.6992649 0 
-17.91316 -10.90569 16.97377 -0.6563213 -1.310187e-07 0.7544816 0 
-17.96629 -11.51346 16.97592 -0.6459022 0.1191856 0.7540591 0 
-12.93212 -19.05 16.77172 0.05943023 -0.6976638 0.7139562 0 
-18.12406 -12.10276 16.98232 -0.6149633 0.2347494 0.7528033 0 
-18.38168 -12.65569 16.99277 -0.5644417 0.3431811 0.7507545 0 
-24.43888 -12.65569 17.23848 0.6233948 0.3431808 0.7025709 0 
-24.6965 -12.10276 17.24893 0.6739148 0.2347505 0.700522 0 
-24.85428 -11.51346 17.25533 0.7048551 0.1191859 0.6992667 0 
-17.91316 10.90569 16.97377 -0.6563214 7.486379e-08 0.7544814 0 
-17.96629 10.29792 16.97592 -0.6459023 0.1191856 0.7540591 0 
-18.12406 9.708619 16.98232 -0.6149638 0.2347496 0.7528028 0 
-18.38168 9.15569 16.99277 -0.5644419 0.3431812 0.7507543 0 
-18.73133 8.655933 17.00695 -0.4958757 0.4411843 0.7479731 0 
-19.16237 8.224534 17.02444 -0.411346 0.5257831 0.7445446 0 
-19.66172 7.874601 17.04469 -0.3134215 0.594407 0.7405723 0 
-20.2142 7.616765 17.06711 -0.2050796 0.6449685 0.7361781 0 
-23.15884 -7.874603 17.18655 0.372375 -0.5944071 0.7127532 0 
-22.60637 -7.616767 17.16414 0.264032 -0.644969 0.7171486 0 
-22.60637 7.616765 17.16414 0.2640317 0.6449686 0.7171491 0 
-22.01755 -7.458865 17.14026 0.1485646 -0.6759347 0.7218317 0 
-23.15884 7.874601 17.18655 0.3723748 0.594407 0.7127534 0 
-23.65819 8.224534 17.20681 0.4702988 0.5257829 0.7087816 0 
-24.08923 8.655933 17.22429 0.5548283 0.4411846 0.7053522 0 
-24.43888 9.15569 17.23848 0.6233949 0.3431809 0.7025708 0 
-18.73133 -8.655935 17.00695 -0.4958757 -0.4411844 0.747973 0 
-18.38168 -9.155692 16.99277 -0.5644419 -0.3431813 0.7507543 0 
-18.12406 -9.708621 16.98232 -0.6149626 -0.2347499 0.7528037 0 
-17.96629 -10.29792 16.97592 -0.6459004 -0.1191844 0.7540608 0 
-20.2142 -7.616767 17.06711 -0.2050797 -0.644969 0.7361775 0 
-19.66172 -7.874603 17.04469 -0.3134213 -0.594407 0.7405724 0 
-19.16237 -8.224536 17.02444 -0.4113462 -0.5257834 0.7445443 0 
-20.80301 -7.458865 17.09099 -0.08961187 -0.6759346 0.7314931 0 
-20.80301 7.458863 17.09099 -0.08961188 0.6759344 0.7314932 0 
-21.41028 -7.405692 17.11562 0.02947648 -0.6863615 0.7266629 0 
-21.41028 7.40569 17.11562 0.02947646 0.6863617 0.7266629 0 
-22.01755 7.458863 17.14026 0.1485646 0.6759345 0.7218318 0 
-22.01755 -14.35252 17.14026 0.1485642 0.6759343 0.721832 0 
-22.60637 -14.19462 17.16414 0.2640328 0.6449686 0.7171486 0 
-23.15884 -13.93678 17.18655 0.3723747 0.5944073 0.7127532 0 
-18.73133 -13.15545 17.00695 -0.4958755 0.4411846 0.747973 0 
-19.16237 -13.58685 17.02444 -0.4113462 0.5257834 0.7445443 0 
-19.66172 -13.93678 17.04469 -0.3134216 0.594407 0.7405722 0 
-20.2142 -14.19462 17.06711 -0.2050803 0.6449685 0.7361778 0 
-20.80301 -14.35252 17.09099 -0.0896115 0.6759345 0.7314933 0 
-21.41028 -14.40569 17.11562 0.02947653 0.6863616 0.726663 0 
-23.65819 -13.58685 17.20681 0.470299 0.5257828 0.7087817 0 
-24.08923 -13.15545 17.22429 0.5548281 0.441185 0.7053521 0 
-29.69115 -19.05 14.14882 -0.6002759 -0.5773503 -0.5534759 0 
-29.69115 19.05 14.14882 -0.6002765 0.5773505 -0.553475 0 
-18.51543 12.65569 13.69548 -0.6233945 -0.343181 -0.7025711 0 
-13.35371 19.05 13.4861 -0.05784173 0.7167975 -0.6948783 0 
-18.25781 12.10276 13.68503 -0.6739155 -0.2347487 -0.7005219 0 
-18.10004 11.51346 13.67863 -0.7048558 -0.1191848 -0.6992663 0 
-18.86508 13.15545 13.70967 -0.5548276 -0.4411852 -0.7053523 0 
-19.29613 13.58685 13.72715 -0.4702985 -0.5257842 -0.7087809 0 
-19.79547 13.93678 13.74741 -0.3723755 -0.5944061 -0.7127538 0 
-22.1513 14.35252 13.84297 0.08961106 -0.6759344 -0.7314934 0 
-22.74012 14.19462 13.86685 0.2050803 -0.6449687 -0.7361776 0 
-18.51543 9.15569 13.69548 -0.6233944 0.3431807 -0.7025713 0 
-18.25781 9.708619 13.68503 -0.6739156 0.2347491 -0.7005217 0 
-13.35371 -19.05 13.4861 -0.05784173 -0.7167984 -0.6948772 0 
-18.10004 10.29792 13.67863 -0.7048558 0.1191849 -0.6992663 0 
-18.04691 10.90569 13.67648 -0.7152741 -1.704333e-07 -0.6988441 0 
-18.86508 -13.15545 13.70967 -0.5548274 0.4411853 -0.7053525 0 
-18.51543 -12.65569 13.69548 -0.6233945 0.343181 -0.702571 0 
-18.25781 -12.10276 13.68503 -0.6739155 0.2347488 -0.7005219 0 
-18.10004 -11.51346 13.67863 -0.704856 0.1191848 -0.6992661 0 
-20.34795 14.19462 13.76982 -0.2640332 -0.6449689 -0.7171483 0 
-20.93676 14.35252 13.7937 -0.148564 -0.6759344 -0.7218321 0 
-21.54403 14.40569 13.81834 -0.02947652 -0.6863617 -0.7266629 0 
-23.29259 13.93678 13.88926 0.3134229 -0.5944061 -0.7405723 0 
-23.79194 13.58685 13.90952 0.4113461 -0.5257831 -0.7445446 0 
-24.22298 13.15545 13.927 0.4958751 -0.4411859 -0.7479726 0 
-18.04691 -10.90569 13.67648 -0.715274 2.462341e-07 -0.6988442 0 
-18.10004 -10.29792 13.67863 -0.7048557 -0.1191849 -0.6992664 0 
-19.29613 8.224534 13.72715 -0.4702983 0.5257841 -0.7087812 0 
-18.51543 -9.155692 13.69548 -0.623395 -0.343181 -0.7025707 0 
-19.79547 7.874601 13.74741 -0.3723752 0.5944067 -0.7127535 0 
-20.34795 7.616765 13.76982 -0.2640332 0.6449684 -0.7171488 0 
-18.25781 -9.708621 13.68503 -0.6739157 -0.234749 -0.7005216 0 
-18.86508 8.655933 13.70967 -0.5548276 0.4411849 -0.7053526 0 
-24.57263 -9.155692 13.94119 0.5644409 -0.3431807 -0.7507553 0 
-24.83025 -9.708621 13.95164 0.6149644 -0.2347489 -0.7528026 0 
-24.98803 -10.29792 13.95804 0.6459023 -0.1191857 -0.754059 0 
-25.04116 -10.90569 13.96019 0.6563214 -8.466775e-08 -0.7544815 0 
-24.98803 -11.51346 13.95804 0.6459022 0.1191858 -0.7540591 0 
-24.83025 -12.10276 13.95164 0.6149638 0.2347489 -0.7528032 0 
-24.57263 -12.65569 13.94119 0.564441 0.3431806 -0.7507553 0 
-24.22298 -13.15545 13.927 0.495875 0.4411861 -0.7479725 0 
-24.57263 12.65569 13.94119 0.564441 -0.3431808 -0.7507552 0 
-24.83025 12.10276 13.95164 0.614964 -0.2347486 -0.752803 0 
-24.98803 11.51346 13.95804 0.6459022 -0.1191858 -0.7540591 0 
-23.29259 -7.874602 13.88926 0.3134229 -0.5944065 -0.7405721 0 
-23.79194 -8.224536 13.90952 0.4113453 -0.5257832 -0.7445449 0 
-22.74012 7.616765 13.86685 0.2050802 0.6449683 -0.736178 0 
-20.34795 -14.19462 13.76982 -0.264033 0.6449691 -0.7171482 0 
-19.79547 -13.93678 13.74741 -0.3723758 0.5944062 -0.7127536 0 
-19.29613 -13.58685 13.72715 -0.4702986 0.5257841 -0.7087809 0 
-24.83025 9.708619 13.95164 0.6149651 0.2347491 -0.7528019 0 
-24.98803 10.29792 13.95804 0.6459022 0.1191858 -0.7540591 0 
-25.04116 10.90569 13.96019 0.6563214 1.342867e-07 -0.7544815 0 
-24.57263 9.15569 13.94119 0.5644409 0.3431805 -0.7507553 0 
-24.22298 8.655933 13.927 0.4958753 0.4411855 -0.7479727 0 
-23.79194 8.224534 13.90952 0.4113452 0.5257833 -0.7445449 0 
-23.29259 7.874601 13.88926 0.313423 0.5944066 -0.740572 0 
-24.22298 -8.655935 13.927 0.4958754 -0.4411853 -0.7479727 0 
-18.86508 -8.655935 13.70967 -0.5548277 -0.4411849 -0.7053525 0 
-19.29613 -8.224536 13.72715 -0.4702981 -0.525784 -0.7087812 0 
-19.79547 -7.874602 13.74741 -0.3723751 -0.5944066 -0.7127535 0 
-23.79194 -13.58685 13.90952 0.4113461 0.525783 -0.7445446 0 
-23.29259 -13.93678 13.88926 0.3134228 0.5944062 -0.7405723 0 
-22.74012 -14.19462 13.86685 0.2050803 0.6449689 -0.7361776 0 
-22.1513 -14.35252 13.84297 0.08961105 0.6759346 -0.7314932 0 
-21.54403 -14.40569 13.81834 -0.02947648 0.6863617 -0.7266629 0 
-20.93676 -14.35252 13.7937 -0.1485639 0.6759343 -0.7218321 0 
-20.34795 -7.616766 13.76982 -0.2640335 -0.6449689 -0.7171481 0 
-20.93676 -7.458865 13.7937 -0.1485639 -0.6759344 -0.7218321 0 
-20.93676 7.458864 13.7937 -0.1485639 0.6759343 -0.7218321 0 
-21.54403 7.405691 13.81834 -0.02947652 0.6863618 -0.7266628 0 
-21.54403 -7.405692 13.81834 -0.0294765 -0.6863616 -0.726663 0 
-22.1513 7.458864 13.84297 0.08961113 0.6759344 -0.7314934 0 
-22.1513 -7.458865 13.84297 0.08961114 -0.6759344 -0.7314934 0 
-22.74012 -7.616766 13.86685 0.2050804 -0.6449689 -0.7361774 0 
-12.84825 19.05 13.4223 -0.1435792 0.7267277 -0.6717529 0 
-12.84825 -19.05 13.4223 -0.1435792 -0.7267276 -0.6717529 0 
-12.36088 19.05 13.2739 -0.2551766 0.7267278 -0.6377709 0 
-12.36088 -19.05 13.2739 -0.2551766 -0.7267277 -0.637771 0 
-11.90564 19.05 13.04516 -0.3594146 0.7267276 -0.5853958 0 
-11.90564 -19.05 13.04516 -0.3594146 -0.7267275 -0.5853958 0 
-11.49567 19.05 12.74269 -0.4532865 0.7267277 -0.5161377 0 
-11.49567 -19.05 12.74269 -0.4532865 -0.7267277 -0.5161378 0 
-11.1428 19.05 12.37521 -0.5340859 0.7267275 -0.4319947 0 
-11.1428 -19.05 12.37521 -0.5340859 -0.7267275 -0.4319947 0 
-10.85719 19.05 11.95332 -0.5994821 0.7267277 -0.3353924 0 
-10.85719 -19.05 11.95332 -0.5994819 -0.7267278 -0.3353925 0 
-10.6471 19.05 11.48919 -0.6475896 0.7267277 -0.2291172 0 
-10.6471 -19.05 11.48919 -0.6475896 -0.7267277 -0.2291173 0 
-10.51856 19.05 10.9962 -0.6770203 0.7267277 -0.1162345 0 
-10.51856 -19.05 10.9962 -0.6770202 -0.7267277 -0.1162345 0 
-10.4753 19.05 10.48857 -0.6966518 0.7167973 -0.02963017 0 
-10.4753 -19.05 10.48857 -0.6966505 -0.7167985 -0.02963026 0 
-10.4753 7.284623 -2.794238 -0.7272602 0.6449692 0.2347495 0 
-10.4753 7.542458 -3.347168 -0.7272604 0.5944067 0.3431807 0 
-10.4753 -19.05 -9.638847 -0.7156808 -0.6977801 -0.03006643 0 
-10.4753 19.05 -9.638845 -0.715681 0.6977798 -0.0300664 0 
-10.4753 14.07355 -1.597167 -0.7272604 -0.6863617 -2.673385e-08 0 
-10.4753 14.02037 -0.9893986 -0.7272602 -0.6759345 -0.1191855 0 
-10.4753 13.86247 -0.4000967 -0.7272604 -0.6449689 -0.2347495 0 
-10.4753 -14.02037 -2.204938 -0.7272602 0.6759345 0.1191855 0 
-10.4753 -13.86247 -2.794239 -0.7272604 0.6449689 0.2347495 0 
-10.4753 12.32355 -4.628256 -0.7272604 -0.3431809 0.5944067 0 
-10.4753 11.77062 -4.886092 -0.7272604 -0.2347493 0.6449691 0 
-10.4753 11.18132 -5.043994 -0.7272602 -0.1191855 0.6759345 0 
-10.4753 8.823547 -4.628256 -0.7272603 0.3431811 0.5944066 0 
-10.4753 9.376476 -4.886092 -0.7272606 0.2347495 0.6449688 0 
-10.4753 9.965778 -5.043994 -0.7272602 0.1191854 0.6759345 0 
-10.4753 10.57355 -5.097167 -0.7272604 -7.902148e-08 0.6863617 0 
-10.4753 12.8233 -4.278323 -0.7272604 -0.4411849 0.5257834 0 
-10.4753 13.2547 -3.846925 -0.7272602 -0.5257837 0.4411849 0 
-10.4753 13.60464 -3.347167 -0.7272603 -0.5944066 0.3431811 0 
-10.4753 13.60464 0.1528328 -0.7272604 -0.5944065 -0.3431811 0 
-10.4753 13.2547 0.6525894 -0.7272603 -0.5257838 -0.4411848 0 
-10.4753 12.8233 1.083989 -0.7272604 -0.4411849 -0.5257834 0 
-10.4753 7.892392 -3.846925 -0.7272603 0.5257835 0.441185 0 
-10.4753 8.323791 -4.278323 -0.7272602 0.4411849 0.5257837 0 
-10.4753 13.86247 -2.794237 -0.7272605 -0.644969 0.2347495 0 
-10.4753 14.02037 -2.204936 -0.7272602 -0.6759345 0.1191854 0 
-10.4753 12.32355 1.433922 -0.7272604 -0.3431806 -0.5944067 0 
-10.4753 11.77062 1.691756 -0.7272603 -0.2347495 -0.6449692 0 
-10.4753 11.18132 1.849659 -0.7272602 -0.1191854 -0.6759345 0 
-10.4753 -13.60464 -3.347168 -0.7272604 0.5944066 0.343181 0 
-10.4753 -13.2547 -3.846925 -0.7272602 0.5257837 0.441185 0 
-10.4753 -12.8233 -4.278324 -0.7272604 0.4411849 0.5257834 0 
-10.4753 -12.32355 -4.628257 -0.7272604 0.3431808 0.5944067 0 
-10.4753 -11.77062 -4.886093 -0.7272604 0.2347492 0.6449691 0 
-10.4753 -11.18132 -5.043995 -0.7272602 0.1191854 0.6759345 0 
-10.4753 7.892392 0.6525891 -0.7272603 0.5257835 -0.441185 0 
-10.4753 8.323791 1.083988 -0.7272604 0.4411847 -0.5257837 0 
-10.4753 8.823547 1.433921 -0.7272602 0.3431809 -0.5944068 0 
-10.4753 -12.8233 1.083987 -0.7272604 0.4411849 -0.5257834 0 
-10.4753 -13.2547 0.6525882 -0.7272603 0.5257838 -0.4411848 0 
-10.4753 -13.60464 0.1528316 -0.7272604 0.5944065 -0.3431811 0 
-10.4753 -8.323791 -4.278324 -0.7272602 -0.441185 0.5257837 0 
-10.4753 -7.892392 -3.846925 -0.7272604 -0.5257834 0.4411849 0 
-10.4753 7.12672 -0.9893989 -0.7272565 0.6759383 -0.1191864 0 
-10.4753 -7.542458 -3.347168 -0.7272604 -0.5944067 0.3431808 0 
-10.4753 7.12672 -2.204937 -0.7272604 0.6759343 0.1191857 0 
-10.4753 -9.965778 -5.043995 -0.7272602 -0.1191854 0.6759345 0 
-10.4753 -10.57355 -5.097168 -0.7272605 2.065184e-08 0.6863616 0 
-10.4753 10.57355 1.902833 -0.7272604 -2.228584e-08 -0.6863617 0 
-10.4753 9.965778 1.849659 -0.7272604 0.1191854 -0.6759344 0 
-10.4753 9.376476 1.691756 -0.7272604 0.2347497 -0.6449689 0 
-10.4753 7.542458 0.1528325 -0.7272605 0.5944065 -0.3431807 0 
-10.4753 7.284623 -0.400097 -0.7272603 0.6449692 -0.2347495 0 
-10.4753 -11.18132 1.849658 -0.7272604 0.1191855 -0.6759344 0 
-10.4753 -11.77062 1.691756 -0.7272604 0.2347496 -0.644969 0 
-10.4753 -12.32355 1.43392 -0.7272604 0.3431807 -0.5944067 0 
-10.4753 -13.86247 -0.4000979 -0.7272605 0.644969 -0.2347495 0 
-10.4753 -14.02037 -0.9893998 -0.7272602 0.6759345 -0.1191854 0 
-10.4753 -14.07355 -1.597169 -0.7272604 0.6863617 2.673385e-08 0 
-10.4753 7.073547 -1.597168 -0.727258 0.6863642 2.673394e-08 0 
-10.4753 -9.376476 -4.886093 -0.7272601 -0.2347496 0.6449692 0 
-10.4753 -8.823547 -4.628257 -0.7272604 -0.3431811 0.5944065 0 
-10.4753 -7.073547 -1.597168 -0.7272604 -0.6863617 -2.673385e-08 0 
-10.4753 -7.12672 -0.9893995 -0.7272604 -0.6759343 -0.1191857 0 
-10.4753 -7.284623 -0.4000976 -0.7272602 -0.6449692 -0.2347495 0 
-10.4753 -7.542458 0.1528319 -0.7272604 -0.5944067 -0.3431809 0 
-10.4753 -7.284623 -2.794238 -0.7272603 -0.6449692 0.2347495 0 
-10.4753 -7.12672 -2.204937 -0.7272604 -0.6759342 0.1191857 0 
-10.4753 -7.892392 0.6525884 -0.7272603 -0.5257835 -0.441185 0 
-10.4753 -8.323791 1.083988 -0.7272604 -0.4411847 -0.5257837 0 
-10.4753 -8.823547 1.433921 -0.7272602 -0.3431809 -0.5944068 0 
-10.4753 -9.376476 1.691756 -0.7272604 -0.2347497 -0.6449689 0 
-10.4753 -9.965778 1.849658 -0.7272604 -0.1191854 -0.6759344 0 
-10.4753 -10.57355 1.902832 -0.7272603 7.90215e-08 -0.6863618 0 
-10.39089 19.05 -10.64178 -0.7148385 0.6887075 -0.1211942 0 
-10.39089 -19.05 -10.64178 -0.7148385 -0.6887075 -0.1211942 0 
-10.14001 19.05 -11.61649 -0.6845232 0.6887072 -0.2389782 0 
-10.14001 -19.05 -11.61649 -0.684523 -0.6887073 -0.2389782 0 
-9.729738 19.05 -12.53555 -0.6349454 0.6887075 -0.3500378 0 
-9.729738 -19.05 -12.53555 -0.6349454 -0.6887075 -0.3500376 0 
-9.171612 19.05 -13.3731 -0.5675016 0.6887074 -0.4512473 0 
-9.171612 -19.05 -13.3731 -0.5675015 -0.6887075 -0.4512471 0 
-8.481337 19.05 -14.10558 -0.484089 0.6887072 -0.5397595 0 
-8.481337 -19.05 -14.10558 -0.484089 -0.6887072 -0.5397596 0 
-7.678337 19.05 -14.71236 -0.3870542 0.6887074 -0.6130834 0 
-7.678337 -19.05 -14.71236 -0.3870542 -0.6887075 -0.6130832 0 
-6.785205 19.05 -15.17639 -0.2791284 0.6887075 -0.6691557 0 
-6.785205 -19.05 -15.17639 -0.2791287 -0.6887074 -0.6691557 0 
-5.827077 19.05 -15.48459 -0.1633484 0.6887075 -0.7063988 0 
-5.827077 -19.05 -15.48459 -0.1633485 -0.6887074 -0.706399 0 
-4.830912 19.05 -15.6283 -0.07243034 0.6977801 -0.7126408 0 
-4.830912 -19.05 -15.6283 -0.07243035 -0.6977801 -0.7126408 0 
6.264969 -1.7101 -16.28709 0.6007323 0.2347494 -0.7642077 0 
6.632658 -2.499999 -16.30892 0.550258 0.3431809 -0.7612115 0 
15.87056 0.8682416 -16.8574 -0.7178491 -0.1191858 -0.6859208 0 
15.64538 1.710102 -16.84403 -0.6869392 -0.2347491 -0.6877553 0 
29.51336 19.05 -17.66741 0.5421168 0.5773504 -0.6105537 0 
9.248078 4.698464 -16.4642 0.1912332 -0.6449696 -0.7398947 0 
8.459567 4.330128 -16.41739 0.2994744 -0.5944065 -0.7463216 0 
10.08846 4.92404 -16.5141 0.07587276 -0.6759337 -0.7330464 0 
8.459567 -4.330126 -16.41739 0.2994746 0.5944065 -0.7463216 0 
9.248078 -4.698462 -16.4642 0.1912331 0.6449696 -0.7398947 0 
14.77866 -3.213937 -16.79257 -0.5679626 0.4411849 -0.6948197 0 
15.27769 -2.499999 -16.8222 -0.6364645 0.3431812 -0.6907529 0 
29.51336 -19.05 -17.66741 0.5421162 -0.5773494 -0.6105552 0 
14.16346 3.830223 -16.75604 -0.4835128 -0.5257833 -0.6998338 0 
13.45078 4.330128 -16.71373 -0.3856811 -0.5944065 -0.7056423 0 
12.66227 4.698464 -16.66691 -0.2774397 -0.6449697 -0.7120684 0 
11.82189 4.92404 -16.61702 -0.1620793 -0.675934 -0.7189183 0 
10.95517 5.000001 -16.56556 -0.04310412 -0.6863624 -0.7259812 0 
15.27769 2.500001 -16.8222 -0.6364648 -0.3431809 -0.6907529 0 
14.77866 3.213939 -16.79257 -0.5679626 -0.4411849 -0.6948197 0 
6.632658 2.500001 -16.30892 0.550258 -0.3431806 -0.7612116 0 
6.264969 1.710102 -16.28709 0.6007322 -0.2347494 -0.7642078 0 
15.64538 -1.7101 -16.84403 -0.6869392 0.234749 -0.6877553 0 
15.87056 -0.8682402 -16.8574 -0.7178494 0.1191856 -0.6859205 0 
15.94638 7.370571e-07 -16.8619 -0.05926901 6.720661e-07 -0.9982421 0 
7.746884 3.830223 -16.37508 0.3973055 -0.5257835 -0.7521304 0 
7.131683 3.213939 -16.33855 0.4817563 -0.4411848 -0.7571439 0 
6.039791 0.8682416 -16.27372 0.6316417 -0.119186 -0.766044 0 
5.963963 7.111502e-07 -16.26922 -0.05926889 4.363455e-08 -0.9982421 0 
6.039791 -0.8682402 -16.27372 0.6316419 0.119186 -0.7660439 0 
7.131683 -3.213937 -16.33855 0.4817563 0.4411849 -0.7571439 0 
7.746884 -3.830221 -16.37508 0.3973055 0.5257836 -0.7521303 0 
10.08846 -4.924038 -16.5141 0.07587279 0.675934 -0.7330461 0 
10.95517 -4.999999 -16.56556 -0.04310345 0.6863618 -0.7259818 0 
11.82189 -4.924038 -16.61702 -0.1620798 0.6759336 -0.7189186 0 
12.66227 -4.698462 -16.66691 -0.2774397 0.6449696 -0.7120684 0 
13.45078 -4.330126 -16.71373 -0.3856811 0.5944066 -0.7056422 0 
14.16346 -3.830221 -16.75604 -0.4835128 0.5257834 -0.6998338 0 
29.70894 -19.05 -14.37321 0.6105539 -0.5773511 0.542116 0 
29.70894 19.05 -14.37321 0.610554 0.5773504 0.5421165 0 
6.235375 0.8682415 -12.97952 0.7178497 -0.1191853 0.6859204 0 
6.460555 1.710102 -12.99289 0.6869387 -0.2347495 0.6877557 0 
-4.353107 19.05 -12.35086 0.07051892 0.7166787 0.6938291 0 
6.828242 2.5 -13.01472 0.6364651 -0.3431807 0.6907526 0 
7.32727 3.213938 -13.04435 0.5679627 -0.441185 0.6948195 0 
7.94247 3.830222 -13.08088 0.4835124 -0.5257837 0.6998338 0 
8.655152 4.330127 -13.12319 0.3856807 -0.5944067 0.7056423 0 
9.443663 4.698463 -13.17001 0.2774405 -0.6449687 0.712069 0 
10.28404 4.924039 -13.2199 0.1620791 -0.6759346 0.7189178 0 
11.15076 5 -13.27136 0.0431033 -0.6863617 0.725982 0 
16.14197 5.93063e-07 -13.5677 0.05926774 -4.885011e-08 0.9982421 0 
6.828242 -2.5 -13.01472 0.6364651 0.3431809 0.6907526 0 
6.460555 -1.7101 -12.99289 0.6869388 0.2347495 0.6877556 0 
-4.353107 -19.05 -12.35086 0.0705189 -0.7166784 0.6938293 0 
6.235375 -0.8682403 -12.97952 0.7178495 0.1191854 0.6859206 0 
6.159547 5.671562e-07 -12.97502 0.05926769 -2.578747e-07 0.9982421 0 
12.01747 4.924039 -13.32282 -0.0758725 -0.6759344 0.7330458 0 
12.85785 4.698463 -13.37271 -0.1912335 -0.6449691 0.739895 0 
13.64636 4.330127 -13.41953 -0.2994738 -0.5944067 0.7463217 0 
16.06614 -0.8682403 -13.5632 -0.6316432 0.1191852 0.7660429 0 
15.84096 -1.7101 -13.54983 -0.6007318 0.2347495 0.7642081 0 
15.47327 -2.5 -13.528 -0.5502585 0.3431811 0.7612111 0 
10.28404 -4.924038 -13.2199 0.1620791 0.6759346 0.7189178 0 
9.443663 -4.698462 -13.17001 0.2774405 0.6449688 0.7120689 0 
8.655152 -4.330126 -13.12319 0.3856807 0.5944067 0.7056423 0 
14.35905 3.830222 -13.46185 -0.3973059 -0.5257839 0.7521299 0 
14.97425 3.213938 -13.49837 -0.4817557 -0.4411847 0.7571443 0 
15.47327 2.5 -13.528 -0.5502585 -0.343181 0.7612112 0 
15.84096 1.710102 -13.54983 -0.6007315 -0.2347497 0.7642083 0 
16.06614 0.8682415 -13.5632 -0.6316432 -0.1191853 0.7660429 0 
14.97425 -3.213938 -13.49837 -0.4817557 0.4411847 0.7571443 0 
14.35905 -3.830221 -13.46185 -0.3973059 0.5257838 0.75213 0 
13.64636 -4.330126 -13.41953 -0.2994736 0.5944064 0.746322 0 
7.94247 -3.830221 -13.08088 0.4835124 0.5257836 0.6998338 0 
7.32727 -3.213938 -13.04435 0.5679629 0.4411849 0.6948195 0 
12.85785 -4.698462 -13.37271 -0.1912335 0.644969 0.7398951 0 
12.01747 -4.924038 -13.32282 -0.0758726 0.6759342 0.7330459 0 
11.15076 -5 -13.27136 0.04310345 0.6863614 0.7259821 0 
-4.851191 19.05 -12.279 0.1548204 0.7264816 0.6695186 0 
-4.851191 -19.05 -12.279 0.1548204 -0.7264816 0.6695186 0 
-5.330255 19.05 -12.1249 0.2645552 0.7264816 0.6342201 0 
-5.330255 -19.05 -12.1249 0.2645552 -0.7264817 0.63422 0 
-5.77682 19.05 -11.89289 0.3668466 0.7264819 0.5810747 0 
-5.77682 -19.05 -11.89289 0.3668464 -0.7264819 0.5810747 0 
-6.178319 19.05 -11.5895 0.4588151 0.7264816 0.5115793 0 
-6.178319 -19.05 -11.5895 0.4588151 -0.7264816 0.5115792 0 
-6.523458 19.05 -11.22326 0.537873 0.7264817 0.4276881 0 
-6.523458 -19.05 -11.22326 0.5378728 -0.7264819 0.4276881 0 
-6.802521 19.05 -10.80448 0.6017959 0.7264816 0.3317622 0 
-6.802521 -19.05 -10.80448 0.6017959 -0.7264816 0.3317624 0 
-7.007658 19.05 -10.34495 0.6487846 0.7264817 0.2265016 0 
-7.007658 -19.05 -10.34495 0.6487846 -0.7264817 0.2265015 0 
-7.133094 19.05 -9.857595 0.6775175 0.7264817 0.1148668 0 
-7.133094 -19.05 -9.857597 0.6775176 -0.7264817 0.1148668 0 
-7.175303 19.05 -9.35613 0.6967925 0.7166752 0.02927246 0 
-7.175303 -19.05 -9.356132 0.6967904 -0.7166773 0.02927249 0 
-7.175303 13.2547 0.6525894 0.7272601 -0.5257838 -0.4411848 0 
-7.175303 13.60464 0.1528328 0.7272604 -0.5944065 -0.3431811 0 
-7.175303 19.05 10.77664 0.7157766 0.6976655 0.0304439 0 
-7.175303 13.86247 -0.4000967 0.7272604 -0.6449689 -0.2347495 0 
-7.175303 14.02037 -0.9893986 0.7272602 -0.6759345 -0.1191855 0 
-7.175303 14.07355 -1.597167 0.7272604 -0.6863617 -3.32698e-08 0 
-7.175303 14.02037 -2.204936 0.7272602 -0.6759345 0.1191854 0 
-7.175303 9.965778 1.849659 0.7272605 0.1191854 -0.6759343 0 
-7.175303 9.376476 1.691756 0.7272604 0.2347497 -0.6449689 0 
-7.175303 -19.05 10.77664 0.7157766 -0.6976655 0.03044382 0 
-7.175303 8.823547 -4.628256 0.7272603 0.3431811 0.5944066 0 
-7.175303 -7.073547 -1.597168 0.7272573 -0.6863649 -3.326996e-08 0 
-7.175303 9.376476 -4.886092 0.7272605 0.2347495 0.644969 0 
-7.175303 9.965778 -5.043994 0.7272602 0.1191853 0.6759345 0 
-7.175303 -8.823547 1.433921 0.7272602 -0.3431809 -0.5944069 0 
-7.175303 7.542458 -3.347168 0.7272596 0.5944073 0.3431813 0 
-7.175303 -9.376476 1.691756 0.7272596 -0.23475 -0.6449698 0 
-7.175303 7.284623 -2.794238 0.7272602 0.6449692 0.2347495 0 
-7.175303 7.12672 -2.204937 0.7272604 0.6759342 0.1191857 0 
-7.175303 10.57355 1.902833 0.7272603 -1.901784e-08 -0.6863618 0 
-7.175303 11.18132 1.849659 0.7272604 -0.1191854 -0.6759344 0 
-7.175303 11.77062 1.691756 0.7272604 -0.2347495 -0.644969 0 
-7.175303 13.86247 -2.794237 0.7272605 -0.644969 0.2347495 0 
-7.175303 13.60464 -3.347167 0.7272604 -0.5944067 0.3431809 0 
-7.175303 13.2547 -3.846925 0.7272602 -0.5257837 0.4411849 0 
-7.175303 12.8233 -4.278323 0.7272604 -0.4411849 0.5257834 0 
-7.175303 12.32355 -4.628256 0.7272604 -0.3431809 0.5944067 0 
-7.175303 11.77062 -4.886092 0.7272604 -0.2347493 0.6449691 0 
-7.175303 -8.823547 -4.628257 0.7272603 -0.3431812 0.5944066 0 
-7.175303 -8.323791 -4.278324 0.7272602 -0.441185 0.5257837 0 
-7.175303 -7.892392 -3.846925 0.7272604 -0.5257834 0.4411849 0 
-7.175303 -8.323791 1.083988 0.7272604 -0.4411847 -0.5257837 0 
-7.175303 -7.892392 0.6525884 0.7272603 -0.5257835 -0.441185 0 
-7.175303 -7.542458 0.1528319 0.7272605 -0.5944065 -0.3431808 0 
-7.175303 12.32355 1.433922 0.7272604 -0.3431806 -0.5944067 0 
-7.175303 12.8233 1.083989 0.7272604 -0.4411849 -0.5257834 0 
-7.175303 -13.86247 -2.794239 0.7272604 0.6449689 0.2347495 0 
-7.175303 -14.02037 -2.204938 0.7272602 0.6759345 0.1191855 0 
-7.175303 -14.07355 -1.597169 0.7272604 0.6863617 3.32698e-08 0 
-7.175303 -14.02037 -0.9893998 0.7272602 0.6759345 -0.1191854 0 
-7.175303 -13.86247 -0.4000979 0.7272605 0.644969 -0.2347495 0 
-7.175303 -13.60464 0.1528316 0.7272604 0.5944065 -0.3431811 0 
-7.175303 -13.2547 0.6525882 0.7272602 0.5257838 -0.4411848 0 
-7.175303 7.892392 0.6525891 0.7272603 0.5257835 -0.441185 0 
-7.175303 8.323791 1.083988 0.7272604 0.4411847 -0.5257837 0 
-7.175303 8.823547 1.433921 0.7272602 0.3431809 -0.5944068 0 
-7.175303 -12.8233 -4.278324 0.7272604 0.4411849 0.5257834 0 
-7.175303 -13.2547 -3.846925 0.7272602 0.5257837 0.441185 0 
-7.175303 -13.60464 -3.347168 0.7272603 0.5944066 0.3431812 0 
-7.175303 -12.8233 1.083987 0.7272604 0.4411849 -0.5257834 0 
-7.175303 -12.32355 1.43392 0.7272604 0.3431807 -0.5944067 0 
-7.175303 -11.77062 1.691756 0.7272602 0.2347495 -0.6449692 0 
-7.175303 -11.18132 1.849658 0.7272602 0.1191855 -0.6759345 0 
-7.175303 -10.57355 1.902832 0.7272604 8.228949e-08 -0.6863617 0 
-7.175303 -9.965778 1.849658 0.7272601 -0.1191854 -0.6759346 0 
-7.175303 -9.376476 -4.886093 0.7272606 -0.2347495 0.6449688 0 
-7.175303 -9.965778 -5.043995 0.7272602 -0.1191854 0.6759345 0 
-7.175303 -10.57355 -5.097168 0.7272604 1.901784e-08 0.6863617 0 
-7.175303 -11.18132 -5.043995 0.7272602 0.1191854 0.6759345 0 
-7.175303 8.323791 -4.278323 0.7272602 0.4411849 0.5257837 0 
-7.175303 7.892392 -3.846925 0.7272603 0.5257835 0.441185 0 
-7.175303 -7.12672 -0.9893995 0.7272603 -0.6759344 -0.1191857 0 
-7.175303 -7.284623 -0.4000976 0.7272602 -0.6449692 -0.2347495 0 
-7.175303 7.073547 -1.597168 0.7272604 0.6863617 3.32698e-08 0 
-7.175303 7.12672 -0.9893989 0.7272581 0.6759366 -0.119186 0 
-7.175303 7.284623 -0.400097 0.7272603 0.6449692 -0.2347495 0 
-7.175303 7.542458 0.1528325 0.7272604 0.5944067 -0.3431808 0 
-7.175303 11.18132 -5.043994 0.7272602 -0.1191855 0.6759345 0 
-7.175303 10.57355 -5.097167 0.7272605 -8.065548e-08 0.6863616 0 
-7.175303 -11.77062 -4.886093 0.7272604 0.2347492 0.6449691 0 
-7.175303 -12.32355 -4.628257 0.7272604 0.3431808 0.5944067 0 
-7.175303 -7.12672 -2.204937 0.7272604 -0.6759343 0.1191856 0 
-7.175303 -7.284623 -2.794238 0.7272602 -0.6449693 0.2347495 0 
-7.175303 -7.542458 -3.347168 0.7272604 -0.5944067 0.3431806 0 
-7.261823 19.05 11.79191 0.7147922 0.6884853 0.1227199 0 
-7.261823 -19.05 11.79191 0.7147922 -0.6884853 0.1227198 0 
-7.518888 19.05 12.77789 0.6837193 0.6884854 0.2419005 0 
-7.518888 -19.05 12.77789 0.6837193 -0.6884854 0.2419004 0 
-7.939085 19.05 13.70615 0.6329282 0.6884853 0.3541046 0 
-7.939085 -19.05 13.70615 0.6329283 -0.6884853 0.3541043 0 
-8.510293 19.05 14.54993 0.5638832 0.6884854 0.456096 0 
-8.510293 -19.05 14.54993 0.5638832 -0.6884854 0.4560959 0 
-9.216041 19.05 15.28489 0.4785761 0.6884853 0.5449339 0 
-9.216041 -19.05 15.28489 0.4785762 -0.6884853 0.5449338 0 
-10.03597 19.05 15.88983 0.3794663 0.6884853 0.6180562 0 
-10.03597 -19.05 15.88983 0.3794665 -0.6884853 0.6180561 0 
-10.94645 19.05 16.3473 0.2694128 0.6884853 0.6733534 0 
-10.94645 -19.05 16.3473 0.2694128 -0.6884854 0.6733532 0 
-11.9212 19.05 16.64412 0.1515903 0.6884854 0.7092308 0 
-11.9212 -19.05 16.64412 0.1515903 -0.6884856 0.7092307 0 
6.159547 5.671562e-07 -12.97502 0.9982421 4.971351e-09 -0.05926826 0 
5.963963 7.111502e-07 -16.26922 0.9982421 -6.931905e-09 -0.05926824 0 
16.14197 5.93063e-07 -13.5677 -0.9982421 -1.211331e-08 0.05926828 0 
15.94638 7.370571e-07 -16.8619 -0.9982421 9.312557e-09 0.05926826 0 
3 0 1 2 0 
3 3 0 4 0 
3 4 0 5 0 
3 4 5 6 0 
3 3 7 0 0 
3 0 7 8 0 
3 0 8 9 0 
3 2 10 0 0 
3 0 10 11 0 
3 0 11 12 0 
3 12 13 0 0 
3 0 13 14 0 
3 0 14 15 0 
3 15 16 0 0 
3 0 16 17 0 
3 0 17 18 0 
3 18 17 19 0 
3 18 19 20 0 
3 20 21 18 0 
3 18 21 22 0 
3 18 22 23 0 
3 23 24 18 0 
3 18 24 25 0 
3 18 25 26 0 
3 9 27 0 0 
3 0 27 28 0 
3 0 28 1 0 
3 29 30 31 0 
3 31 30 32 0 
3 31 32 33 0 
3 34 35 5 0 
3 5 35 36 0 
3 5 36 6 0 
3 26 37 18 0 
3 18 37 38 0 
3 18 38 31 0 
3 38 39 31 0 
3 31 39 40 0 
3 31 40 41 0 
3 41 42 31 0 
3 31 42 43 0 
3 31 43 44 0 
3 45 46 47 0 
3 47 46 48 0 
3 45 47 9 0 
3 9 47 49 0 
3 9 49 50 0 
3 50 51 9 0 
3 9 51 52 0 
3 9 52 27 0 
3 53 54 44 0 
3 44 54 55 0 
3 44 55 31 0 
3 31 55 56 0 
3 31 56 29 0 
3 57 58 44 0 
3 44 58 59 0 
3 44 59 53 0 
3 57 44 60 0 
3 60 44 61 0 
3 60 61 62 0 
3 62 61 63 0 
3 62 63 48 0 
3 48 63 64 0 
3 48 64 47 0 
3 65 66 5 0 
3 5 66 67 0 
3 33 68 31 0 
3 31 68 69 0 
3 31 69 70 0 
3 70 71 31 0 
3 31 71 72 0 
3 31 72 5 0 
3 5 72 73 0 
3 5 73 65 0 
3 67 74 5 0 
3 5 74 75 0 
3 5 75 34 0 
3 76 5 77 0 
3 77 5 0 0 
3 78 79 80 0 
3 80 79 81 0 
3 78 82 79 0 
3 79 82 83 0 
3 79 83 84 0 
3 77 85 86 0 
3 87 88 89 0 
3 89 88 90 0 
3 89 90 79 0 
3 79 90 91 0 
3 79 91 81 0 
3 92 93 89 0 
3 89 93 94 0 
3 89 94 95 0 
3 84 96 79 0 
3 79 96 97 0 
3 79 97 77 0 
3 77 97 98 0 
3 77 98 85 0 
3 86 99 77 0 
3 77 99 100 0 
3 77 100 101 0 
3 95 102 89 0 
3 89 102 103 0 
3 89 103 87 0 
3 104 105 106 0 
3 106 105 107 0 
3 103 108 87 0 
3 87 108 105 0 
3 87 105 109 0 
3 109 105 104 0 
3 110 111 77 0 
3 77 111 112 0 
3 77 112 76 0 
3 76 112 113 0 
3 76 113 114 0 
3 114 115 76 0 
3 76 115 116 0 
3 76 116 117 0 
3 101 118 77 0 
3 77 118 119 0 
3 77 119 120 0 
3 121 122 123 0 
3 124 125 89 0 
3 89 125 126 0 
3 89 126 92 0 
3 127 110 128 0 
3 128 110 77 0 
3 128 77 129 0 
3 129 77 120 0 
3 127 130 110 0 
3 110 130 131 0 
3 110 131 132 0 
3 132 133 110 0 
3 110 133 123 0 
3 110 123 134 0 
3 134 123 122 0 
3 105 135 107 0 
3 107 135 136 0 
3 107 136 137 0 
3 117 138 76 0 
3 76 138 139 0 
3 76 139 140 0 
3 140 141 76 0 
3 76 141 142 0 
3 76 142 89 0 
3 89 142 143 0 
3 89 143 124 0 
3 137 144 107 0 
3 107 144 145 0 
3 107 145 146 0 
3 146 145 147 0 
3 147 145 148 0 
3 147 148 149 0 
3 149 148 150 0 
3 149 150 123 0 
3 123 150 151 0 
3 123 151 121 0 
3 89 79 152 0 
3 89 152 153 0 
3 153 152 154 0 
3 153 154 155 0 
3 155 154 156 0 
3 155 156 157 0 
3 157 156 158 0 
3 157 158 159 0 
3 159 158 160 0 
3 159 160 161 0 
3 161 160 162 0 
3 161 162 163 0 
3 163 162 164 0 
3 163 164 165 0 
3 165 164 166 0 
3 165 166 167 0 
3 167 166 168 0 
3 167 168 169 0 
3 170 171 172 0 
3 173 174 168 0 
3 168 174 175 0 
3 168 175 176 0 
3 177 178 172 0 
3 179 173 180 0 
3 180 173 181 0 
3 182 183 172 0 
3 172 183 184 0 
3 172 184 173 0 
3 173 184 185 0 
3 173 185 181 0 
3 179 186 173 0 
3 173 186 187 0 
3 173 187 188 0 
3 176 189 168 0 
3 168 189 190 0 
3 168 190 191 0 
3 171 192 172 0 
3 172 192 193 0 
3 172 193 182 0 
3 188 194 173 0 
3 173 194 195 0 
3 173 195 174 0 
3 191 196 168 0 
3 168 196 197 0 
3 168 197 198 0 
3 178 199 172 0 
3 172 199 200 0 
3 172 200 201 0 
3 201 202 172 0 
3 172 202 203 0 
3 172 203 204 0 
3 205 169 206 0 
3 206 169 207 0 
3 208 209 169 0 
3 169 209 210 0 
3 211 212 213 0 
3 213 212 214 0 
3 215 170 216 0 
3 216 170 172 0 
3 216 172 217 0 
3 217 172 204 0 
3 198 218 168 0 
3 168 218 219 0 
3 168 219 169 0 
3 169 219 220 0 
3 169 220 207 0 
3 205 221 169 0 
3 169 221 222 0 
3 169 222 213 0 
3 223 224 169 0 
3 169 224 225 0 
3 169 225 208 0 
3 210 226 169 0 
3 169 226 227 0 
3 169 227 172 0 
3 172 227 228 0 
3 172 228 177 0 
3 215 216 229 0 
3 229 216 230 0 
3 229 230 213 0 
3 213 230 231 0 
3 213 231 211 0 
3 232 233 213 0 
3 213 233 234 0 
3 213 234 235 0 
3 214 236 213 0 
3 213 236 237 0 
3 213 237 232 0 
3 235 238 213 0 
3 213 238 239 0 
3 213 239 240 0 
3 240 241 213 0 
3 213 241 242 0 
3 213 242 169 0 
3 169 242 243 0 
3 169 243 223 0 
3 172 173 244 0 
3 172 244 245 0 
3 245 244 246 0 
3 245 246 247 0 
3 247 246 248 0 
3 247 248 249 0 
3 249 248 250 0 
3 249 250 251 0 
3 251 250 252 0 
3 251 252 253 0 
3 253 252 254 0 
3 253 254 255 0 
3 255 254 256 0 
3 255 256 257 0 
3 257 256 258 0 
3 257 258 259 0 
3 259 258 260 0 
3 259 260 261 0 
3 262 263 261 0 
3 264 265 266 0 
3 267 268 260 0 
3 267 260 269 0 
3 270 271 261 0 
3 272 273 274 0 
3 266 275 276 0 
3 276 277 266 0 
3 266 277 278 0 
3 266 278 260 0 
3 260 278 279 0 
3 260 279 269 0 
3 265 280 266 0 
3 266 280 281 0 
3 266 281 275 0 
3 260 282 283 0 
3 273 284 274 0 
3 274 284 285 0 
3 274 285 266 0 
3 266 285 286 0 
3 266 286 264 0 
3 268 287 260 0 
3 260 287 288 0 
3 260 288 282 0 
3 283 289 260 0 
3 260 289 290 0 
3 260 290 261 0 
3 261 290 291 0 
3 261 291 262 0 
3 263 292 261 0 
3 261 292 293 0 
3 261 293 270 0 
3 271 294 261 0 
3 261 294 295 0 
3 261 295 274 0 
3 274 295 296 0 
3 274 296 297 0 
3 297 298 274 0 
3 274 298 299 0 
3 274 299 272 0 
3 300 274 301 0 
3 301 274 266 0 
3 302 303 304 0 
3 304 303 305 0 
3 304 305 306 0 
3 306 307 304 0 
3 304 307 308 0 
3 304 308 309 0 
3 309 310 304 0 
3 304 310 311 0 
3 304 311 301 0 
3 300 301 312 0 
3 313 314 315 0 
3 315 314 316 0 
3 315 316 304 0 
3 304 316 317 0 
3 304 317 302 0 
3 311 318 301 0 
3 301 318 319 0 
3 301 319 320 0 
3 312 321 300 0 
3 300 321 322 0 
3 300 322 323 0 
3 324 325 315 0 
3 315 325 326 0 
3 320 327 301 0 
3 301 327 328 0 
3 301 328 329 0 
3 329 330 301 0 
3 301 330 331 0 
3 301 331 312 0 
3 323 332 300 0 
3 300 332 333 0 
3 300 333 334 0 
3 326 335 315 0 
3 315 335 336 0 
3 315 336 313 0 
3 334 337 300 0 
3 300 337 338 0 
3 300 338 315 0 
3 315 338 339 0 
3 315 339 324 0 
3 315 304 340 0 
3 315 340 341 0 
3 341 340 342 0 
3 341 342 343 0 
3 343 342 344 0 
3 343 344 345 0 
3 345 344 346 0 
3 345 346 347 0 
3 347 346 348 0 
3 347 348 349 0 
3 349 348 350 0 
3 349 350 351 0 
3 351 350 352 0 
3 351 352 353 0 
3 353 352 354 0 
3 353 354 355 0 
3 355 354 356 0 
3 355 356 357 0 
3 358 359 360 0 
3 359 361 360 0 
3 360 361 362 0 
3 360 362 356 0 
3 356 362 363 0 
3 356 363 364 0 
3 365 360 366 0 
3 366 360 367 0 
3 368 369 370 0 
3 370 369 371 0 
3 372 373 374 0 
3 374 373 375 0 
3 374 375 376 0 
3 365 377 360 0 
3 360 377 378 0 
3 360 378 379 0 
3 364 380 356 0 
3 356 380 381 0 
3 356 381 382 0 
3 382 383 356 0 
3 356 383 384 0 
3 356 384 385 0 
3 386 356 387 0 
3 387 356 388 0 
3 372 389 373 0 
3 373 389 390 0 
3 373 390 391 0 
3 379 392 360 0 
3 360 392 393 0 
3 360 393 358 0 
3 394 395 357 0 
3 357 395 396 0 
3 357 396 367 0 
3 367 396 397 0 
3 397 398 367 0 
3 367 398 399 0 
3 367 399 400 0 
3 401 402 367 0 
3 367 402 403 0 
3 367 403 366 0 
3 404 405 357 0 
3 357 405 406 0 
3 357 406 394 0 
3 400 407 367 0 
3 367 407 408 0 
3 367 408 409 0 
3 409 410 367 0 
3 367 410 411 0 
3 367 411 412 0 
3 386 413 356 0 
3 356 413 414 0 
3 356 414 357 0 
3 357 414 415 0 
3 357 415 416 0 
3 368 417 369 0 
3 369 417 418 0 
3 369 418 419 0 
3 419 418 373 0 
3 419 373 420 0 
3 420 373 391 0 
3 376 421 374 0 
3 374 421 422 0 
3 374 422 412 0 
3 412 422 423 0 
3 412 423 367 0 
3 367 423 424 0 
3 367 424 401 0 
3 385 425 356 0 
3 356 425 426 0 
3 356 426 371 0 
3 416 427 357 0 
3 357 427 428 0 
3 357 428 404 0 
3 369 429 371 0 
3 371 429 430 0 
3 371 430 356 0 
3 356 430 431 0 
3 356 431 388 0 
3 367 360 432 0 
3 367 432 433 0 
3 433 432 434 0 
3 433 434 435 0 
3 435 434 436 0 
3 435 436 437 0 
3 437 436 438 0 
3 437 438 439 0 
3 439 438 440 0 
3 439 440 441 0 
3 441 440 442 0 
3 441 442 443 0 
3 443 442 444 0 
3 443 444 445 0 
3 445 444 446 0 
3 445 446 447 0 
3 447 446 18 0 
3 447 18 31 0 
3 5 76 31 0 
3 31 76 89 0 
3 31 89 447 0 
3 447 89 153 0 
3 447 153 445 0 
3 445 153 155 0 
3 445 155 443 0 
3 443 155 157 0 
3 443 157 441 0 
3 441 157 159 0 
3 441 159 439 0 
3 439 159 161 0 
3 439 161 437 0 
3 437 161 163 0 
3 437 163 435 0 
3 435 163 165 0 
3 435 165 433 0 
3 433 165 167 0 
3 433 167 367 0 
3 367 167 169 0 
3 367 169 357 0 
3 357 169 172 0 
3 357 172 355 0 
3 355 172 245 0 
3 355 245 353 0 
3 353 245 247 0 
3 353 247 351 0 
3 351 247 249 0 
3 351 249 349 0 
3 349 249 251 0 
3 349 251 347 0 
3 347 251 253 0 
3 347 253 345 0 
3 345 253 255 0 
3 345 255 343 0 
3 343 255 257 0 
3 343 257 341 0 
3 341 257 259 0 
3 341 259 315 0 
3 315 259 261 0 
3 315 261 300 0 
3 300 261 274 0 
3 301 266 304 0 
3 304 266 260 0 
3 304 260 340 0 
3 340 260 258 0 
3 340 258 342 0 
3 342 258 256 0 
3 342 256 344 0 
3 344 256 254 0 
3 344 254 346 0 
3 346 254 252 0 
3 346 252 348 0 
3 348 252 250 0 
3 348 250 350 0 
3 350 250 248 0 
3 350 248 352 0 
3 352 248 246 0 
3 352 246 354 0 
3 354 246 244 0 
3 354 244 356 0 
3 356 244 173 0 
3 356 173 360 0 
3 360 173 168 0 
3 360 168 432 0 
3 432 168 166 0 
3 432 166 434 0 
3 434 166 164 0 
3 434 164 436 0 
3 436 164 162 0 
3 436 162 438 0 
3 438 162 160 0 
3 438 160 440 0 
3 440 160 158 0 
3 440 158 442 0 
3 442 158 156 0 
3 442 156 444 0 
3 444 156 154 0 
3 444 154 446 0 
3 446 154 152 0 
3 446 152 18 0 
3 18 152 79 0 
3 18 79 0 0 
3 0 79 77 0 
3 120 1 129 0 
3 129 1 28 0 
3 129 28 128 0 
3 128 28 27 0 
3 128 27 127 0 
3 127 27 52 0 
3 127 52 130 0 
3 130 52 51 0 
3 130 51 131 0 
3 131 51 50 0 
3 131 50 132 0 
3 132 50 49 0 
3 132 49 133 0 
3 133 49 47 0 
3 133 47 123 0 
3 123 47 64 0 
3 123 64 149 0 
3 149 64 63 0 
3 149 63 147 0 
3 147 63 61 0 
3 147 61 146 0 
3 146 61 44 0 
3 146 44 107 0 
3 107 44 43 0 
3 107 43 106 0 
3 106 43 42 0 
3 106 42 104 0 
3 104 42 41 0 
3 104 41 109 0 
3 109 41 40 0 
3 109 40 87 0 
3 87 40 39 0 
3 87 39 88 0 
3 88 39 38 0 
3 88 38 90 0 
3 90 38 37 0 
3 90 37 91 0 
3 91 37 26 0 
3 91 26 81 0 
3 81 26 25 0 
3 81 25 80 0 
3 80 25 24 0 
3 80 24 78 0 
3 78 24 23 0 
3 78 23 82 0 
3 82 23 22 0 
3 82 22 83 0 
3 83 22 21 0 
3 83 21 84 0 
3 84 21 20 0 
3 84 20 96 0 
3 96 20 19 0 
3 96 19 97 0 
3 97 19 17 0 
3 97 17 98 0 
3 98 17 16 0 
3 98 16 85 0 
3 85 16 15 0 
3 85 15 86 0 
3 86 15 14 0 
3 86 14 99 0 
3 99 14 13 0 
3 99 13 100 0 
3 100 13 12 0 
3 100 12 101 0 
3 101 12 11 0 
3 101 11 118 0 
3 118 11 10 0 
3 118 10 119 0 
3 119 10 2 0 
3 119 2 120 0 
3 120 2 1 0 
3 112 6 113 0 
3 113 6 36 0 
3 113 36 114 0 
3 114 36 35 0 
3 114 35 115 0 
3 115 35 34 0 
3 115 34 116 0 
3 116 34 75 0 
3 116 75 117 0 
3 117 75 74 0 
3 117 74 138 0 
3 138 74 67 0 
3 138 67 139 0 
3 139 67 66 0 
3 139 66 140 0 
3 140 66 65 0 
3 140 65 141 0 
3 141 65 73 0 
3 141 73 142 0 
3 142 73 72 0 
3 142 72 143 0 
3 143 72 71 0 
3 143 71 124 0 
3 124 71 70 0 
3 124 70 125 0 
3 125 70 69 0 
3 125 69 126 0 
3 126 69 68 0 
3 126 68 92 0 
3 92 68 33 0 
3 92 33 93 0 
3 93 33 32 0 
3 93 32 94 0 
3 94 32 30 0 
3 94 30 95 0 
3 95 30 29 0 
3 95 29 102 0 
3 102 29 56 0 
3 102 56 103 0 
3 103 56 55 0 
3 103 55 108 0 
3 108 55 54 0 
3 108 54 105 0 
3 105 54 53 0 
3 105 53 135 0 
3 135 53 59 0 
3 135 59 136 0 
3 136 59 58 0 
3 136 58 137 0 
3 137 58 57 0 
3 137 57 144 0 
3 144 57 60 0 
3 144 60 145 0 
3 145 60 62 0 
3 145 62 148 0 
3 148 62 48 0 
3 148 48 150 0 
3 150 48 46 0 
3 150 46 151 0 
3 151 46 45 0 
3 151 45 121 0 
3 121 45 9 0 
3 121 9 122 0 
3 122 9 8 0 
3 122 8 134 0 
3 134 8 7 0 
3 134 7 110 0 
3 110 7 3 0 
3 110 3 111 0 
3 111 3 4 0 
3 111 4 112 0 
3 112 4 6 0 
3 425 185 426 0 
3 426 185 184 0 
3 426 184 371 0 
3 371 184 183 0 
3 371 183 370 0 
3 370 183 182 0 
3 370 182 368 0 
3 368 182 193 0 
3 368 193 417 0 
3 417 193 192 0 
3 417 192 418 0 
3 418 192 171 0 
3 418 171 373 0 
3 373 171 170 0 
3 373 170 375 0 
3 375 170 215 0 
3 375 215 376 0 
3 376 215 229 0 
3 376 229 421 0 
3 421 229 213 0 
3 421 213 422 0 
3 422 213 222 0 
3 422 222 423 0 
3 423 222 221 0 
3 423 221 424 0 
3 424 221 205 0 
3 424 205 401 0 
3 401 205 206 0 
3 401 206 402 0 
3 402 206 207 0 
3 402 207 403 0 
3 403 207 220 0 
3 403 220 366 0 
3 366 220 219 0 
3 366 219 365 0 
3 365 219 218 0 
3 365 218 377 0 
3 377 218 198 0 
3 377 198 378 0 
3 378 198 197 0 
3 378 197 379 0 
3 379 197 196 0 
3 379 196 392 0 
3 392 196 191 0 
3 392 191 393 0 
3 393 191 190 0 
3 393 190 358 0 
3 358 190 189 0 
3 358 189 359 0 
3 359 189 176 0 
3 359 176 361 0 
3 361 176 175 0 
3 361 175 362 0 
3 362 175 174 0 
3 362 174 363 0 
3 363 174 195 0 
3 363 195 364 0 
3 364 195 194 0 
3 364 194 380 0 
3 380 194 188 0 
3 380 188 381 0 
3 381 188 187 0 
3 381 187 382 0 
3 382 187 186 0 
3 382 186 383 0 
3 383 186 179 0 
3 383 179 384 0 
3 384 179 180 0 
3 384 180 385 0 
3 385 180 181 0 
3 385 181 425 0 
3 425 181 185 0 
3 414 217 415 0 
3 415 217 204 0 
3 415 204 416 0 
3 416 204 203 0 
3 416 203 427 0 
3 427 203 202 0 
3 427 202 428 0 
3 428 202 201 0 
3 428 201 404 0 
3 404 201 200 0 
3 404 200 405 0 
3 405 200 199 0 
3 405 199 406 0 
3 406 199 178 0 
3 406 178 394 0 
3 394 178 177 0 
3 394 177 395 0 
3 395 177 228 0 
3 395 228 396 0 
3 396 228 227 0 
3 396 227 397 0 
3 397 227 226 0 
3 397 226 398 0 
3 398 226 210 0 
3 398 210 399 0 
3 399 210 209 0 
3 399 209 400 0 
3 400 209 208 0 
3 400 208 407 0 
3 407 208 225 0 
3 407 225 408 0 
3 408 225 224 0 
3 408 224 409 0 
3 409 224 223 0 
3 409 223 410 0 
3 410 223 243 0 
3 410 243 411 0 
3 411 243 242 0 
3 411 242 412 0 
3 412 242 241 0 
3 412 241 374 0 
3 374 241 240 0 
3 374 240 372 0 
3 372 240 239 0 
3 372 239 389 0 
3 389 239 238 0 
3 389 238 390 0 
3 390 238 235 0 
3 390 235 391 0 
3 391 235 234 0 
3 391 234 420 0 
3 420 234 233 0 
3 420 233 419 0 
3 419 233 232 0 
3 419 232 369 0 
3 369 232 237 0 
3 369 237 429 0 
3 429 237 236 0 
3 429 236 430 0 
3 430 236 214 0 
3 430 214 431 0 
3 431 214 212 0 
3 431 212 388 0 
3 388 212 211 0 
3 388 211 387 0 
3 387 211 231 0 
3 387 231 386 0 
3 386 231 230 0 
3 386 230 413 0 
3 413 230 216 0 
3 413 216 414 0 
3 414 216 217 0 
3 289 448 449 0 
3 449 448 316 0 
3 449 316 291 0 
3 291 316 314 0 
3 291 314 262 0 
3 262 314 313 0 
3 262 313 263 0 
3 263 313 336 0 
3 263 336 292 0 
3 292 336 335 0 
3 292 335 293 0 
3 293 335 326 0 
3 293 326 270 0 
3 270 326 325 0 
3 270 325 271 0 
3 271 325 324 0 
3 271 324 294 0 
3 294 324 339 0 
3 294 339 295 0 
3 295 339 338 0 
3 295 338 296 0 
3 296 338 337 0 
3 296 337 297 0 
3 297 337 334 0 
3 297 334 298 0 
3 298 334 333 0 
3 298 333 299 0 
3 299 333 332 0 
3 299 332 272 0 
3 272 332 323 0 
3 272 323 273 0 
3 273 323 322 0 
3 273 322 284 0 
3 284 322 321 0 
3 284 321 285 0 
3 285 321 450 0 
3 285 450 451 0 
3 451 450 331 0 
3 451 331 264 0 
3 264 331 330 0 
3 264 330 265 0 
3 265 330 329 0 
3 265 329 280 0 
3 280 329 328 0 
3 280 328 281 0 
3 281 328 327 0 
3 281 327 275 0 
3 275 327 320 0 
3 275 320 276 0 
3 276 320 319 0 
3 276 319 277 0 
3 277 319 318 0 
3 277 318 278 0 
3 278 318 311 0 
3 278 311 279 0 
3 279 311 310 0 
3 279 310 269 0 
3 269 310 309 0 
3 269 309 267 0 
3 267 309 308 0 
3 267 308 268 0 
3 268 308 307 0 
3 268 307 287 0 
3 287 307 306 0 
3 287 306 288 0 
3 288 306 305 0 
3 288 305 282 0 
3 282 305 303 0 
3 282 303 283 0 
3 283 303 302 0 
3 283 302 289 0 
3 289 302 448 0 
